<svg width="32" height="32" viewBox="0 0 32 32" fill="none" xmlns="http://www.w3.org/2000/svg">
  <g id="Group 3">
    <path id="Rectangle 16" d="M0 8.72268C0 4.24128 3.63289 0.608398 8.11429 0.608398H29.6171C30.0653 0.608398 30.4286 0.971687 30.4286 1.41983V22.9227C30.4286 27.4041 26.7957 31.037 22.3143 31.037H0.811428C0.363288 31.037 0 30.6737 0 30.2255V8.72268Z" fill="#5A39A2"/>
    <path id="Rectangle 17" d="M0 8.72268C0 4.24128 3.63289 0.608398 8.11429 0.608398H29.6171C30.0653 0.608398 30.4286 0.971687 30.4286 1.41983V22.9227C30.4286 27.4041 26.7957 31.037 22.3143 31.037H0.811428C0.363288 31.037 0 30.6737 0 30.2255V8.72268Z" fill="#5A39A2"/>
    <path id="Vector 13" d="M9.30783 15.2948L6.89885 19.3265L4.64043 23.308L2.23145 27.7914L3.21846 27.1891L3.98799 26.1519L4.80772 24.8303L5.778 23.5756L6.84866 22.505L7.77037 21.7369C7.89173 21.6358 8.02182 21.5456 8.1591 21.4674L9.09696 20.9331C9.21506 20.8659 9.33812 20.8077 9.46505 20.7591L10.4188 20.3941C10.559 20.3405 10.7034 20.2987 10.8506 20.2693L11.1713 20.2051C11.5849 20.1224 11.973 19.9431 12.3042 19.6819L15.6966 17.0058C15.7963 16.9272 15.7407 16.7669 15.6137 16.7669H14.5295C14.339 16.7669 14.149 16.7873 13.9628 16.8276L12.2354 17.2019L13.3206 16.5363C13.4334 16.4671 13.5513 16.4064 13.6731 16.3546L14.8284 15.8636L15.832 15.5698C16.0762 15.4984 16.3294 15.4621 16.5838 15.4621H17.4466C17.4738 15.4621 17.5003 15.4538 17.5227 15.4383L19.122 14.3334C19.2101 14.2725 19.1946 14.1379 19.0949 14.0987L18.1419 13.7236C17.8861 13.6229 17.6164 13.5622 17.3422 13.5437L15.531 13.4211L16.7457 13.1608C16.8726 13.1337 17.0013 13.1157 17.1308 13.1072L18.2077 13.0364L19.3067 13.105C19.4659 13.115 19.6239 13.1392 19.7789 13.1773L20.372 13.3231C20.4989 13.3543 20.6321 13.3477 20.7552 13.3041L23.4941 12.3337L25.8072 11.1619C25.9039 11.113 25.9053 10.9754 25.8097 10.9245L24.4631 10.2063C24.1764 10.0533 23.8641 9.95389 23.5418 9.91283L21.4029 9.64036L23.783 9.45509C24.0571 9.43375 24.3329 9.45478 24.6007 9.51744L26.1408 9.87788C26.3938 9.9371 26.6582 9.84448 26.819 9.64033L27.3501 8.96589C27.5219 8.7477 27.6587 8.50411 27.7556 8.24386L28.0734 7.39039C28.1541 7.17377 28.2063 6.94761 28.2289 6.71757L28.3328 5.658C28.3523 5.45845 28.3494 5.25733 28.3241 5.05844L28.1447 3.65137L25.6019 4.45436L23.0424 5.49156L20.8007 6.71278L17.756 8.63662L15.6314 10.343L13.557 12.3337L11.6834 14.2743L9.64241 16.7502L11.2484 14.2743L13.0384 11.949L14.8284 10.0753L16.5013 8.48606L18.6092 6.86334L20.7672 5.49156L23.0424 4.45436L25.3677 3.65137L23.9472 3.7805C23.7904 3.79476 23.6351 3.82283 23.4832 3.86439L21.9383 4.28707L20.2988 4.97296L18.6092 5.87633L16.8192 7.09755L15.1295 8.48606L13.557 9.97494L12.0848 11.6311L10.6462 13.3709L9.30783 15.2948Z" fill="#D9D9D9" stroke="black" stroke-width="0.0334581"/>
  </g>
</svg>
